<?xml version="1.0" encoding="utf-8"?>
<svg width="46" height="42" viewBox="0 0 46 42" fill="none" xmlns="http://www.w3.org/2000/svg">
  <defs>
    <clipPath id="clip_path_1">
      <rect width="46" height="42" />
    </clipPath>
  </defs>
  <g clip-path="url(#clip_path_1)">
    <rect width="46" height="42" fill="#FFFFFF" fill-rule="evenodd" />
    <g id="Group" transform="translate(-1 0)">
      <path id="Rectangle" d="M1.56522 3.06667L22.4348 0L22.4348 23.5111L0.521536 23.5111L0.00407612 23.5111L0 23.5111L1.56522 3.06667Z" fill="#FF0E2A" fill-rule="evenodd" transform="translate(1.565 0)" />
      <path id="Rectangle" d="M0 0L20.8696 2.04445L22.5204 23.5111L22.4349 23.5111L0 23.5111L0 0Z" fill="#1A134B" fill-rule="evenodd" mix-blend-mode="darken" transform="translate(24 0)" />
      <path id="Rectangle" d="M0 0L44.9526 0L38.7722 17.3778L6.25654 17.3778L0 0Z" fill="#DC8010" fill-rule="evenodd" mix-blend-mode="darken" transform="translate(1.57 23.511)" />
      <rect id="Rectangle" width="48" height="3.067" fill="#FFFFFF" fill-rule="evenodd" transform="translate(0 42.933)" />
      <g transform="translate(7.304 3.289)">
        <path d="M4.47412 10.1519L2.99658 11.6875L2.99658 15.7715L1.40283 15.7715L1.40283 3.68555L2.99658 3.68555L2.99658 9.66211L8.36719 3.68555L10.293 3.68555L5.53662 9.02295L10.6665 15.7715L8.75732 15.7715L4.47412 10.1519Z" fill="#000000" />
        <path d="M2.99658 11.0905L2.99658 15.7715L-0.597168 15.7715L-0.597168 1.68555L2.99658 1.68555L2.99658 6.05316L6.92136 1.68555L11.5236 1.68555L5.8311 8.07342L11.6828 15.7715L7.26216 15.7715L3.38593 10.6858L2.99658 11.0905ZM2.77254 9.88103L1.99658 10.6875L1.99658 14.7715L0.402832 14.7715L0.402832 2.68555L1.99658 2.68555L1.99658 8.66211L2.99658 7.54928L7.36719 2.68555L9.29297 2.68555L8.40183 3.68555L4.53662 8.02295L8.90636 13.7715L9.6665 14.7715L7.75732 14.7715L4.08751 9.95663L3.47412 9.15186L2.77254 9.88103Z" fill="#000000" fill-opacity="0.376" fill-rule="evenodd" />
      </g>
      <g transform="translate(28.174 3.289)">
        <path d="M8.06836 10.4341L2.99658 10.4341L2.99658 15.7715L1.40283 15.7715L1.40283 3.68555L8.89014 3.68555L8.89014 4.98877L2.99658 4.98877L2.99658 9.13086L8.06836 9.13086L8.06836 10.4341Z" fill="#000000" />
        <path d="M1.99658 9.43408L1.99658 14.7715L0.402832 14.7715L0.402832 2.68555L7.89014 2.68555L7.89014 3.98877L1.99658 3.98877L1.99658 8.13086L7.06836 8.13086L7.06836 9.43408L1.99658 9.43408ZM2.99658 10.4341L2.99658 15.7715L-0.597168 15.7715L-0.597168 1.68555L8.89014 1.68555L8.89014 4.98877L2.99658 4.98877L2.99658 7.13086L8.06836 7.13086L8.06836 10.4341L2.99658 10.4341Z" fill="#000000" fill-opacity="0.376" fill-rule="evenodd" />
      </g>
      <g transform="translate(3.13 1.533)">
        <path id="Vector" d="M1.90162 2.98596L0 21.9778L5.73913 38.3333L36 38.3333L41.7391 21.9778L39.6522 2.04444L20.8696 0L1.90162 2.98596Z" />
        <path d="M20.8627 -1L1.00067 2.12671L0.923759 2.89486L-1 22.1078L5.04741 39.3419L36.726 39.3419L42.7742 22.1055L40.5799 1.14617L20.8627 -1ZM1.91878 2.99449L0.0171611 21.9863L5.75629 38.3419L36.0172 38.3419L41.7563 21.9863L39.6693 2.05297L20.8867 0.00852609L1.91878 2.99449Z" fill="#000000" fill-rule="evenodd" />
      </g>
    </g>
  </g>
</svg>