<?xml version="1.0" encoding="utf-8"?>
<svg width="287" height="237" viewBox="0 0 287 237" fill="none" xmlns="http://www.w3.org/2000/svg">
  <defs>
    <clipPath id="clip_path_1">
      <rect width="287" height="237" />
    </clipPath>
  </defs>
  <g clip-path="url(#clip_path_1)">
    <rect width="287" height="237" fill="#FFFFFF" fill-rule="evenodd" />
    <g id="Group">
      <rect id="Rectangle" width="41" height="238" fill="#C0C0C0" fill-rule="evenodd" />
      <rect id="Rectangle" width="41" height="238" fill="#C0C000" fill-rule="evenodd" transform="translate(41 0)" />
      <rect id="Rectangle" width="41" height="238" fill="#B2DFDB" fill-rule="evenodd" transform="translate(82 0)" />
      <rect id="Rectangle" width="41" height="238" fill="#00C0C0" fill-rule="evenodd" transform="translate(82 0)" />
      <rect id="Rectangle" width="41" height="238" fill="#00C000" fill-rule="evenodd" transform="translate(123 0)" />
      <rect id="Rectangle" width="41" height="238" fill="#C000C0" fill-rule="evenodd" transform="translate(164 0)" />
      <rect id="Rectangle" width="41" height="238" fill="#C00000" fill-rule="evenodd" transform="translate(205 0)" />
      <rect id="Rectangle" width="41" height="238" fill="#0000C0" fill-rule="evenodd" transform="translate(246 0)" />
    </g>
    <g id="Group" transform="translate(-19 -55)">
      <path d="M73.165 166.013L49.0029 191.125L49.0029 257.91L22.9404 257.91L22.9404 60.2695L49.0029 60.2695L49.0029 158.004L136.828 60.2695L168.32 60.2695L90.54 147.552L174.429 257.91L143.208 257.91L73.165 166.013Z" fill="#000000" />
      <path d="M73.165 166.013L49.0029 191.125L49.0029 257.91L22.9404 257.91L22.9404 60.2695L49.0029 60.2695L49.0029 158.004L136.828 60.2695L168.32 60.2695L90.54 147.552L174.429 257.91L143.208 257.91L73.165 166.013Z" fill="#1D1D1D" transform="translate(7 0)" />
      <path d="M73.165 166.013L49.0029 191.125L49.0029 257.91L22.9404 257.91L22.9404 60.2695L49.0029 60.2695L49.0029 158.004L136.828 60.2695L168.32 60.2695L90.54 147.552L174.429 257.91L143.208 257.91L73.165 166.013Z" fill="#474747" transform="translate(15 0)" />
      <path d="M73.165 166.013L49.0029 191.125L49.0029 257.91L22.9404 257.91L22.9404 60.2695L49.0029 60.2695L49.0029 158.004L136.828 60.2695L168.32 60.2695L90.54 147.552L174.429 257.91L143.208 257.91L73.165 166.013Z" fill="#7A7A7A" transform="translate(26 0)" />
      <path d="M168.32 195.197Q164.655 226.554 145.176 243.589Q125.697 260.625 93.3906 260.625Q58.3691 260.625 37.2612 235.513Q16.1533 210.4 16.1533 168.32L16.1533 149.316Q16.1533 121.761 25.9946 100.856Q35.8359 79.9521 53.8896 68.7534Q71.9434 57.5547 95.6982 57.5547Q127.19 57.5547 146.194 75.1333Q165.198 92.7119 168.32 123.797L142.122 123.797Q138.729 100.106 127.394 89.4859Q116.06 78.8662 95.6982 78.8662Q70.7217 78.8662 56.5366 97.343Q42.3516 115.82 42.3516 149.919L42.3516 169.075Q42.3516 201.274 55.79 220.294Q69.2285 239.313 93.3906 239.313Q115.109 239.313 126.715 229.472Q138.321 219.631 142.122 195.197L168.32 195.197Z" fill="#000000" transform="translate(108 0)" />
      <path d="M168.32 195.197Q164.655 226.554 145.176 243.589Q125.697 260.625 93.3906 260.625Q58.3691 260.625 37.2612 235.513Q16.1533 210.4 16.1533 168.32L16.1533 149.316Q16.1533 121.761 25.9946 100.856Q35.8359 79.9521 53.8896 68.7534Q71.9434 57.5547 95.6982 57.5547Q127.19 57.5547 146.194 75.1333Q165.198 92.7119 168.32 123.797L142.122 123.797Q138.729 100.106 127.394 89.4859Q116.06 78.8662 95.6982 78.8662Q70.7217 78.8662 56.5366 97.343Q42.3516 115.82 42.3516 149.919L42.3516 169.075Q42.3516 201.274 55.79 220.294Q69.2285 239.313 93.3906 239.313Q115.109 239.313 126.715 229.472Q138.321 219.631 142.122 195.197L168.32 195.197Z" fill="#1D1D1D" transform="translate(115 0)" />
      <path d="M168.32 195.197Q164.655 226.554 145.176 243.589Q125.697 260.625 93.3906 260.625Q58.3691 260.625 37.2612 235.513Q16.1533 210.4 16.1533 168.32L16.1533 149.316Q16.1533 121.761 25.9946 100.856Q35.8359 79.9521 53.8896 68.7534Q71.9434 57.5547 95.6982 57.5547Q127.19 57.5547 146.194 75.1333Q165.198 92.7119 168.32 123.797L142.122 123.797Q138.729 100.106 127.394 89.4859Q116.06 78.8662 95.6982 78.8662Q70.7217 78.8662 56.5366 97.343Q42.3516 115.82 42.3516 149.919L42.3516 169.075Q42.3516 201.274 55.79 220.294Q69.2285 239.313 93.3906 239.313Q115.109 239.313 126.715 229.472Q138.321 219.631 142.122 195.197L168.32 195.197Z" fill="#474747" transform="translate(123 0)" />
      <path d="M168.32 195.197Q164.655 226.554 145.176 243.589Q125.697 260.625 93.3906 260.625Q58.3691 260.625 37.2612 235.513Q16.1533 210.4 16.1533 168.32L16.1533 149.316Q16.1533 121.761 25.9946 100.856Q35.8359 79.9521 53.8896 68.7534Q71.9434 57.5547 95.6982 57.5547Q127.19 57.5547 146.194 75.1333Q165.198 92.7119 168.32 123.797L142.122 123.797Q138.729 100.106 127.394 89.4859Q116.06 78.8662 95.6982 78.8662Q70.7217 78.8662 56.5366 97.343Q42.3516 115.82 42.3516 149.919L42.3516 169.075Q42.3516 201.274 55.79 220.294Q69.2285 239.313 93.3906 239.313Q115.109 239.313 126.715 229.472Q138.321 219.631 142.122 195.197L168.32 195.197Z" fill="#7A7A7A" transform="translate(134 0)" />
    </g>
    <path d="M23.6133 27.3838Q23.0991 31.7827 20.3665 34.1726Q17.6338 36.5625 13.1016 36.5625Q8.18848 36.5625 5.22729 33.0396Q2.26611 29.5166 2.26611 23.6133L2.26611 20.9473Q2.26611 17.0815 3.64673 14.1489Q5.02734 11.2163 7.56006 9.64526Q10.0928 8.07422 13.4253 8.07422Q17.8433 8.07422 20.5093 10.5403Q23.1753 13.0063 23.6133 17.3672L19.938 17.3672Q19.4619 14.0436 17.8718 12.5538Q16.2817 11.064 13.4253 11.064Q9.92139 11.064 7.9314 13.656Q5.94141 16.2481 5.94141 21.0318L5.94141 23.7192Q5.94141 28.2363 7.82666 30.9045Q9.71191 33.5728 13.1016 33.5728Q16.1484 33.5728 17.7766 32.1921Q19.4048 30.8115 19.938 27.3838L23.6133 27.3838ZM106.731 23.2134Q106.731 27.2886 105.36 30.3259Q103.988 33.3633 101.475 34.9629Q98.9611 36.5625 95.6096 36.5625Q92.3342 36.5625 89.8015 34.9534Q87.2688 33.3442 85.8691 30.364Q84.4694 27.3838 84.4314 23.4609L84.4314 21.4614Q84.4314 17.4624 85.8215 14.3965Q87.2116 11.3306 89.7539 9.70239Q92.2961 8.07422 95.5715 8.07422Q98.904 8.07422 101.446 9.68335Q103.988 11.2925 105.36 14.3489Q106.731 17.4053 106.731 21.4614L106.731 23.2134ZM103.093 21.4233Q103.093 16.4912 101.113 13.8538Q99.1325 11.2163 95.5715 11.2163Q92.1057 11.2163 90.1157 13.8538Q88.1257 16.4912 88.0686 21.1758L88.0686 23.2134Q88.0686 27.9932 90.0776 30.7258Q92.0866 33.4585 95.6096 33.4585Q99.1516 33.4585 101.094 30.8782Q103.036 28.2979 103.093 23.48L103.093 21.4233ZM169.015 36.1816L169.015 8.45508L176.842 8.45508Q180.46 8.45508 183.24 10.0547Q186.02 11.6543 187.534 14.606Q189.048 17.5576 189.067 21.3853L189.067 23.1563Q189.067 27.0791 187.553 30.0308Q186.039 32.9824 183.231 34.563Q180.422 36.1436 176.689 36.1816L169.015 36.1816ZM172.671 11.4448L172.671 33.1919L176.518 33.1919Q180.746 33.1919 183.097 30.5617Q185.449 27.9316 185.449 23.0712L185.449 21.451Q185.449 16.7245 183.231 14.1037Q181.012 11.4829 176.937 11.4448L172.671 11.4448ZM267.062 23.3657L255.046 23.3657L255.046 33.1919L269.005 33.1919L269.005 36.1816L251.39 36.1816L251.39 8.45508L268.814 8.45508L268.814 11.4448L255.046 11.4448L255.046 20.376L267.062 20.376L267.062 23.3657Z" fill="#FFFFFF" transform="translate(5 198)" />
  </g>
</svg>