<svg width="128" height="34" viewBox="0 0 128 34" fill="none" xmlns="http://www.w3.org/2000/svg">
<path d="M50.7734 6.58789C50.9684 6.58789 51.0994 6.78304 51.0205 6.95605L41.3799 28.1826C41.2851 28.3907 40.9815 28.3907 40.8867 28.1826L31.2168 6.95605C31.1379 6.78237 31.268 6.58697 31.4629 6.58691L36.4902 6.58203C36.6007 6.58214 36.7007 6.64781 36.7412 6.74805L40.9814 17.2178C41.0206 17.2965 41.1029 17.3505 41.1982 17.3506C41.2738 17.3506 41.3418 17.3159 41.3857 17.2627C41.4015 17.2439 41.413 17.2233 41.4219 17.2012L45.625 6.74902C45.6655 6.64824 45.7659 6.58217 45.877 6.58203L50.7734 6.58789ZM60.4141 6.58105C61.4624 6.58105 62.4829 6.71775 63.4482 6.98438C63.6355 7.03635 63.7473 7.22505 63.7041 7.41211L62.9102 10.8701C62.8598 11.0859 62.6272 11.2066 62.418 11.126C61.7905 10.8849 61.1144 10.7588 60.4141 10.7588C57.2156 10.759 54.626 13.1339 54.626 17.4307C54.6261 21.7271 57.2768 24.1316 60.4141 24.1318C63.5515 24.1318 66.203 21.7577 66.2031 17.4307C66.2031 16.2847 66.0007 15.2624 65.6416 14.3838C65.5755 14.2218 65.6357 14.0401 65.7773 13.9473L65.8428 13.9141L69.4961 12.4521C69.6807 12.3781 69.8921 12.4635 69.9697 12.6445C70.5622 14.0288 70.8945 15.6316 70.8945 17.4307C70.8943 24.4023 66.0499 28.3389 60.4141 28.3389C54.7784 28.3386 49.9045 24.2217 49.9043 17.4307C49.9043 10.6394 54.7783 6.58129 60.4141 6.58105ZM123.233 6.58105L125.256 6.58398L127.168 6.58594C127.17 6.58594 127.175 6.5877 127.176 6.58789H127.622C127.92 6.58856 128.1 6.91173 127.941 7.16016L121.449 17.291L127.943 27.7695C128.098 28.0187 127.916 28.3379 127.62 28.3379L123.059 28.332H123.056C122.925 28.3307 122.803 28.2625 122.735 28.1514L118.44 21.124C118.294 20.8852 117.946 20.8824 117.796 21.1191L113.351 28.1631C113.283 28.2707 113.166 28.336 113.038 28.3389H113.028L110.998 28.3359L109.094 28.334C109.091 28.3339 109.088 28.3333 109.087 28.333H108.641C108.343 28.3323 108.162 28.0082 108.321 27.7598L114.813 17.6299L108.318 7.15039C108.164 6.90128 108.346 6.58204 108.642 6.58203L113.203 6.58789H113.207C113.338 6.5894 113.458 6.65766 113.526 6.76855L117.821 13.7969C117.968 14.0354 118.316 14.0376 118.466 13.8008L122.911 6.75684C122.979 6.64927 123.097 6.58375 123.225 6.58105H123.233ZM81.3506 6.58105C85.2564 6.58112 88.2881 9.00491 88.2881 12.8271C88.2881 14.6295 87.8192 15.9661 86.6006 17.209C86.1798 17.6479 85.674 18.0312 85.1221 18.3389C85.1063 18.3483 85.0883 18.3584 85.0684 18.3691C85.0869 18.359 85.1025 18.3492 85.1162 18.3418L84.9521 18.4297C84.7345 18.5374 84.398 18.7509 84.5195 19.1172C84.5278 19.1407 84.5385 19.1631 84.5508 19.1846L84.5498 19.1836L89.5264 27.7744C89.6701 28.0228 89.4894 28.334 89.2012 28.334L84.6875 28.3379C84.551 28.3379 84.4244 28.2644 84.3584 28.1455L79.5996 19.6006C79.5948 19.5925 79.5904 19.5833 79.585 19.5752C79.482 19.4197 79.3306 19.3398 79.1309 19.3223C79.1199 19.3209 79.1077 19.3213 79.0967 19.3213H77.3828C77.0094 19.3213 76.7054 19.6164 76.6943 19.9854V27.96C76.6943 28.166 76.5267 28.333 76.3193 28.333L72.4375 28.3369C72.2302 28.3376 72.0615 28.1699 72.0615 27.9639V6.95996C72.0615 6.75403 72.2293 6.58707 72.4365 6.58691L81.3506 6.58105ZM106.716 6.58105C106.924 6.58126 107.092 6.7482 107.092 6.9541L107.094 10.3154C107.094 10.5214 106.926 10.688 106.718 10.6875H101.392C101.01 10.6876 100.701 10.9949 100.701 11.373V27.9648C100.701 28.1708 100.532 28.3379 100.324 28.3379L96.3438 28.332C96.1365 28.332 95.968 28.1648 95.9678 27.959V11.3535C95.9676 11.0164 95.7126 10.7191 95.3701 10.6914C95.3516 10.6901 95.3327 10.6895 95.3135 10.6895L89.9521 10.665C89.7455 10.6644 89.5771 10.4973 89.5771 10.292V6.9541C89.5774 6.74827 89.7462 6.58105 89.9541 6.58105H106.716ZM77.0693 10.6836C76.8622 10.6838 76.6943 10.8507 76.6943 11.0566V14.6709C76.6943 14.685 76.6942 14.6997 76.6963 14.7139C76.7356 15.0322 76.9938 15.2829 77.3164 15.3125C77.3272 15.3138 77.3388 15.3135 77.3496 15.3135H80.9443C82.4759 15.3133 83.5068 14.4424 83.5068 12.9512C83.5066 11.5847 82.4132 10.6837 80.8818 10.6836H77.0693ZM65.0342 8.05664C65.092 7.82719 65.3531 7.71377 65.5645 7.82617C66.8901 8.53178 68.0428 9.52744 68.9346 10.7871H68.9336C69.0654 10.9729 68.9919 11.2316 68.7812 11.3232L64.3506 13.2471C64.0732 13.3676 63.7756 13.1219 63.8477 12.8311L65.0342 8.05664Z" fill="url(#paint0_linear_2448_9412)"/>
<path d="M27.5488 10.9805C27.9273 10.8788 28.1372 11.4084 27.7891 11.5908L16.6328 17.4258C16.2744 17.6129 16.5045 18.1591 16.8877 18.0312L22.416 16.1787C22.6958 16.0851 22.9481 16.3818 22.8115 16.6445L13.9062 33.8232C13.7837 34.0583 13.4484 34.059 13.3252 33.8232L4.33984 16.5654C4.23431 16.3631 4.36085 16.116 4.58594 16.0859C8.52846 15.5618 15.5134 14.2329 27.5488 10.9805ZM28.5283 0.0146484C28.8696 -0.0779444 29.1567 0.287047 28.9961 0.609375C28.9961 0.609375 26.4385 5.9466 26.375 5.98535C21.6792 8.69285 11.6553 12.3231 3.02051 14.2578C2.59846 13.6675 0.0439453 8.25098 0.0439453 8.25098C-0.0728204 8.01328 0.0530829 7.72645 0.303711 7.6582C0.303711 7.6582 5.0673 7.57504 13.3652 5.83496C19.7929 4.48714 28.4526 0.053433 28.5283 0.0146484Z" fill="url(#paint1_linear_2448_9412)"/>
<defs>
<linearGradient id="paint0_linear_2448_9412" x1="79.5618" y1="28.2843" x2="124.745" y2="-20.2938" gradientUnits="userSpaceOnUse">
<stop stop-color="#16347E"/>
<stop offset="1" stop-color="#009689"/>
</linearGradient>
<linearGradient id="paint1_linear_2448_9412" x1="44.8215" y1="8.42262e-07" x2="13.6576" y2="34.6546" gradientUnits="userSpaceOnUse">
<stop stop-color="#009689"/>
<stop offset="1" stop-color="#16347E"/>
</linearGradient>
</defs>
</svg>
