<?xml version="1.0" encoding="utf-8"?>
<svg width="287" height="237" viewBox="0 0 287 237" fill="none" xmlns="http://www.w3.org/2000/svg">
  <defs>
    <clipPath id="clip_path_1">
      <rect width="287" height="237" />
    </clipPath>
    <filter color-interpolation-filters="sRGB" x="-325" y="-44" width="327" height="46" id="filter_2">
      <feFlood flood-opacity="0" result="BackgroundImageFix_1" />
      <feColorMatrix type="matrix" values="0 0 0 0 0 0 0 0 0 0 0 0 0 0 0 0 0 0 1 0" in="SourceAlpha" />
      <feOffset dx="2" dy="2" />
      <feColorMatrix type="matrix" values="0 0 0 0 0 0 0 0 0 0 0 0 0 0 0 0 0 0 0.251 0" />
      <feBlend mode="normal" in2="BackgroundImageFix_1" result="Shadow_2" />
      <feBlend mode="normal" in="SourceGraphic" in2="Shadow_2" result="Shape_3" />
    </filter>
  </defs>
  <g clip-path="url(#clip_path_1)">
    <rect width="287" height="237" fill="#FFFFFF" fill-rule="evenodd" />
    <g id="Group">
      <rect id="Rectangle" width="41" height="238" fill="#4F2482" fill-rule="evenodd" />
      <rect id="Rectangle" width="41" height="238" fill="#00B988" fill-rule="evenodd" transform="translate(41 0)" />
      <rect id="Rectangle" width="41" height="238" fill="#4F2482" fill-rule="evenodd" transform="translate(82 0)" />
      <rect id="Rectangle" width="41" height="238" fill="#00B988" fill-rule="evenodd" transform="translate(123 0)" />
      <rect id="Rectangle" width="41" height="238" fill="#4F2482" fill-rule="evenodd" transform="translate(164 0)" />
      <rect id="Rectangle" width="41" height="238" fill="#00B988" fill-rule="evenodd" transform="translate(205 0)" />
      <rect id="Rectangle" width="41" height="238" fill="#4F2482" fill-rule="evenodd" transform="translate(246 0)" />
    </g>
    <g id="Group" transform="translate(-19 -55)">
      <path d="M73.165 166.013L49.0029 191.125L49.0029 257.91L22.9404 257.91L22.9404 60.2695L49.0029 60.2695L49.0029 158.004L136.828 60.2695L168.32 60.2695L90.54 147.552L174.429 257.91L143.208 257.91L73.165 166.013Z" fill="#000000" fill-opacity="0.298" />
      <path d="M73.165 166.013L49.0029 191.125L49.0029 257.91L22.9404 257.91L22.9404 60.2695L49.0029 60.2695L49.0029 158.004L136.828 60.2695L168.32 60.2695L90.54 147.552L174.429 257.91L143.208 257.91L73.165 166.013Z" fill="#E2E2E2" transform="translate(26 0)" />
      <path d="M168.32 195.197Q164.655 226.554 145.176 243.589Q125.697 260.625 93.3906 260.625Q58.3691 260.625 37.2612 235.513Q16.1533 210.4 16.1533 168.32L16.1533 149.316Q16.1533 121.761 25.9946 100.856Q35.8359 79.9521 53.8896 68.7534Q71.9434 57.5547 95.6982 57.5547Q127.19 57.5547 146.194 75.1333Q165.198 92.7119 168.32 123.797L142.122 123.797Q138.729 100.106 127.394 89.4859Q116.06 78.8662 95.6982 78.8662Q70.7217 78.8662 56.5366 97.343Q42.3516 115.82 42.3516 149.919L42.3516 169.075Q42.3516 201.274 55.79 220.294Q69.2285 239.313 93.3906 239.313Q115.109 239.313 126.715 229.472Q138.321 219.631 142.122 195.197L168.32 195.197Z" fill="#000000" fill-opacity="0.298" transform="translate(108 0)" />
      <path d="M168.32 195.197Q164.655 226.554 145.176 243.589Q125.697 260.625 93.3906 260.625Q58.3691 260.625 37.2612 235.513Q16.1533 210.4 16.1533 168.32L16.1533 149.316Q16.1533 121.761 25.9946 100.856Q35.8359 79.9521 53.8896 68.7534Q71.9434 57.5547 95.6982 57.5547Q127.19 57.5547 146.194 75.1333Q165.198 92.7119 168.32 123.797L142.122 123.797Q138.729 100.106 127.394 89.4859Q116.06 78.8662 95.6982 78.8662Q70.7217 78.8662 56.5366 97.343Q42.3516 115.82 42.3516 149.919L42.3516 169.075Q42.3516 201.274 55.79 220.294Q69.2285 239.313 93.3906 239.313Q115.109 239.313 126.715 229.472Q138.321 219.631 142.122 195.197L168.32 195.197Z" fill="#E2E2E2" transform="translate(134 0)" />
    </g>
    <g filter="url(#filter_2)" transform="translate(5 198)">
      <path d="M24.5273 26.7935Q24.394 29.688 22.9658 31.9065Q21.5376 34.125 18.9573 35.3438Q16.377 36.5625 13.0635 36.5625Q7.59814 36.5625 4.45605 33.0015Q1.31396 29.4404 1.31396 22.9468L1.31396 21.5757Q1.31396 17.5005 2.73267 14.4441Q4.15137 11.3877 6.81738 9.72144Q9.4834 8.05518 12.9873 8.05518Q18.0337 8.05518 21.0996 10.7117Q24.1655 13.3682 24.5845 18.0337L17.9194 18.0337Q17.8433 15.501 16.6436 14.3965Q15.4438 13.292 12.9873 13.292Q10.4927 13.292 9.33105 15.1582Q8.16943 17.0244 8.1123 21.1187L8.1123 23.0801Q8.1123 27.5171 9.22632 29.4214Q10.3403 31.3257 13.0635 31.3257Q15.3677 31.3257 16.5864 30.2402Q17.8052 29.1548 17.8813 26.7935L24.5273 26.7935ZM107.968 22.8896Q107.968 26.9458 106.464 30.0688Q104.96 33.1919 102.189 34.8772Q99.4182 36.5625 95.8762 36.5625Q92.3342 36.5625 89.592 34.9343Q86.8498 33.3062 85.3168 30.2783Q83.7839 27.2505 83.7077 23.3276L83.7077 21.7661Q83.7077 17.6909 85.2026 14.5774Q86.6975 11.4639 89.4873 9.76904Q92.2771 8.07422 95.8381 8.07422Q99.361 8.07422 102.122 9.75Q104.883 11.4258 106.416 14.5203Q107.949 17.6147 107.968 21.6138L107.968 22.8896ZM101.17 21.728Q101.17 17.5957 99.7895 15.4534Q98.4089 13.311 95.8381 13.311Q90.8107 13.311 90.5251 20.8521L90.5061 22.8896Q90.5061 26.9648 91.8581 29.1548Q93.2102 31.3447 95.8762 31.3447Q98.4089 31.3447 99.78 29.1929Q101.151 27.041 101.17 23.0039L101.17 21.728ZM168.215 36.1816L168.215 8.45508L177.146 8.45508Q180.822 8.45508 183.754 10.1213Q186.687 11.7876 188.334 14.825Q189.981 17.8623 190 21.6328L190 22.9087Q190 26.7173 188.391 29.7356Q186.782 32.7539 183.859 34.4583Q180.936 36.1626 177.337 36.1816L168.215 36.1816ZM174.899 13.6157L174.899 31.04L177.223 31.04Q180.098 31.04 181.641 28.9929Q183.183 26.9458 183.183 22.9087L183.183 21.709Q183.183 17.6909 181.641 15.6533Q180.098 13.6157 177.146 13.6157L174.899 13.6157ZM267.424 24.4131L256.912 24.4131L256.912 31.04L269.328 31.04L269.328 36.1816L250.228 36.1816L250.228 8.45508L269.366 8.45508L269.366 13.6157L256.912 13.6157L256.912 19.4619L267.424 19.4619L267.424 24.4131Z" fill="#FFFFFF" />
    </g>
  </g>
</svg>