<?xml version="1.0" encoding="utf-8"?>
<svg width="49" height="51" viewBox="0 0 49 51" fill="none" xmlns="http://www.w3.org/2000/svg">
  <defs>
    <clipPath id="clip_path_1">
      <rect width="49" height="51" />
    </clipPath>
    <radialGradient id="gradient_2" gradientUnits="userSpaceOnUse" cx="0" cy="0" r="1" gradientTransform="matrix(0 4 -4 0 4 4)">
      <stop offset="0" stop-color="#FF00AA" />
      <stop offset="1" stop-color="#1A0350" />
    </radialGradient>
    <radialGradient id="gradient_3" gradientUnits="userSpaceOnUse" cx="0" cy="0" r="1" gradientTransform="matrix(0 4 -4 0 4 4)">
      <stop offset="0" stop-color="#41FF15" />
      <stop offset="1" stop-color="#C800FF" />
    </radialGradient>
    <linearGradient id="gradient_4" gradientUnits="userSpaceOnUse" x1="8" y1="8" x2="8" y2="16">
      <stop offset="0" stop-color="#FF3535" />
      <stop offset="1" stop-color="#770098" />
    </linearGradient>
  </defs>
  <g clip-path="url(#clip_path_1)">
    <rect width="49" height="51" />
    <g id="Group">
      <path id="Rectangle" d="M0 0L42.5 1.25517e-05C42.5 1.25517e-05 45.125 8.12502 44 13C42.875 17.875 38 19.5 38 19.5C31.6932 22.4638 10 2.4051 10 25C10 47.5949 40.3334 21.9542 42.5 25C42.5 25 47.125 30 48 36.5C48.875 42.9999 46 51 46 51L0 51L0 0Z" fill="#1A0350" fill-rule="evenodd" />
      <rect id="Rectangle" width="41" height="13" fill="#DC1027" fill-rule="evenodd" transform="translate(0 38)" />
    </g>
    <rect id="Rectangle" width="8" height="8" fill="url(#gradient_2)" fill-rule="evenodd" transform="translate(8 4)" />
    <rect id="Rectangle" width="8" height="8" fill="url(#gradient_3)" fill-rule="evenodd" transform="translate(0 8)" />
    <rect id="Rectangle" width="8" height="8" fill="url(#gradient_3)" fill-rule="evenodd" />
    <path id="Oval" d="M0 8C0 3.58172 3.58172 0 8 0C12.4183 0 16 3.58172 16 8C16 12.4183 12.4183 16 8 16C3.58172 16 0 12.4183 0 8Z" fill="url(#gradient_4)" fill-rule="evenodd" transform="translate(12 16)" />
    <path id="Star" d="M4.27975 0L5.60227 2.67971L8.55951 3.10942L6.41963 5.19529L6.92479 8.14058L4.27975 6.75L1.63472 8.14058L2.13988 5.19529L0 3.10942L2.95724 2.67971L4.27975 0Z" fill="#1D1D31" fill-rule="evenodd" transform="translate(2 40)" />
    <path id="Star" d="M4.27975 0L5.60227 2.67971L8.55951 3.10942L6.41963 5.19529L6.92479 8.14058L4.27975 6.75L1.63472 8.14058L2.13988 5.19529L0 3.10942L2.95724 2.67971L4.27975 0Z" fill="#1D1D31" fill-rule="evenodd" transform="translate(11 40)" />
    <path id="Star" d="M4.27975 0L5.60227 2.67971L8.55951 3.10942L6.41963 5.19529L6.92479 8.14058L4.27975 6.75L1.63472 8.14058L2.13988 5.19529L0 3.10942L2.95724 2.67971L4.27975 0Z" fill="#1D1D31" fill-rule="evenodd" transform="translate(20 40)" />
    <path id="Star" d="M4.27975 0L5.60227 2.67971L8.55951 3.10942L6.41963 5.19529L6.92479 8.14058L4.27975 6.75L1.63472 8.14058L2.13988 5.19529L0 3.10942L2.95724 2.67971L4.27975 0Z" fill="#1D1D31" fill-rule="evenodd" transform="translate(29 40)" />
  </g>
</svg>